# Blender 4.0.2
# www.blender.org
mtllib loose_rocks_1NEW.mtl
o Sphere.000_Sphere.004
v -0.375000 -0.500000 0.312500
v -0.312500 -0.500000 0.312500
v -0.375000 -0.437500 0.312500
v -0.250000 -0.500000 0.375000
v -0.250000 -0.437500 0.375000
v -0.312500 -0.437500 0.250000
v -0.250000 -0.500000 0.312500
v -0.250000 -0.437500 0.312500
v -0.250000 -0.437500 0.250000
v -0.312500 -0.375000 0.250000
v -0.250000 -0.375000 0.312500
v -0.250000 -0.375000 0.250000
v -0.375000 -0.500000 0.187500
v -0.375000 -0.500000 0.125000
v -0.375000 -0.500000 0.062500
v -0.375000 -0.437500 0.062500
v -0.312500 -0.437500 0.125000
v -0.312500 -0.375000 0.125000
v -0.062500 -0.500000 0.375000
v -0.062500 -0.500000 0.250000
v -0.062500 -0.437500 0.375000
v -0.062500 -0.437500 0.312500
v -0.062500 -0.375000 0.312500
v -0.062500 -0.500000 0.125000
v -0.062500 -0.500000 0.062500
v -0.187500 -0.437500 0.125000
v -0.125000 -0.437500 0.125000
v -0.187500 -0.375000 0.125000
v -0.125000 -0.375000 0.125000
v -0.187500 -0.437500 0.062500
v -0.125000 -0.437500 0.062500
v -0.187500 -0.375000 0.062500
v -0.125000 -0.375000 0.062500
v -0.062500 -0.437500 0.125000
v -0.062500 -0.375000 0.125000
v -0.062500 -0.437500 0.062500
v 0.062500 -0.500000 0.125000
v 0.187500 -0.500000 0.250000
v 0.125000 -0.500000 0.187500
v 0.125000 -0.500000 0.125000
v 0.187500 -0.500000 0.187500
v 0.062500 -0.437500 0.125000
v 0.187500 -0.437500 0.250000
v 0.125000 -0.437500 0.187500
v 0.125000 -0.437500 0.125000
v 0.187500 -0.437500 0.187500
v 0.062500 -0.500000 0.000000
v 0.125000 -0.500000 0.000000
v 0.187500 -0.500000 0.000000
v 0.125000 -0.500000 -0.062500
v 0.187500 -0.500000 -0.062500
v 0.062500 -0.437500 0.000000
v 0.125000 -0.437500 0.000000
v 0.187500 -0.437500 0.000000
v 0.125000 -0.437500 -0.062500
v 0.187500 -0.437500 -0.062500
v 0.312500 -0.500000 0.250000
v 0.312500 -0.500000 0.187500
v 0.375000 -0.500000 0.187500
v 0.312500 -0.437500 0.250000
v 0.250000 -0.437500 0.125000
v 0.250000 -0.375000 0.125000
v 0.312500 -0.437500 0.187500
v 0.375000 -0.437500 0.187500
v 0.375000 -0.437500 0.125000
v 0.375000 -0.375000 0.125000
v 0.375000 -0.500000 0.000000
v 0.250000 -0.437500 0.062500
v 0.250000 -0.375000 0.062500
v 0.375000 -0.437500 0.062500
v 0.375000 -0.375000 0.062500
v 0.375000 -0.437500 0.000000
v -0.187500 -0.500000 -0.125000
v -0.187500 -0.437500 -0.125000
v -0.187500 -0.500000 -0.312500
v -0.187500 -0.437500 -0.312500
v 0.000000 -0.500000 -0.125000
v 0.000000 -0.500000 -0.187500
v 0.062500 -0.500000 -0.187500
v 0.000000 -0.437500 -0.125000
v 0.000000 -0.437500 -0.187500
v 0.062500 -0.437500 -0.187500
v 0.062500 -0.500000 -0.312500
v 0.062500 -0.437500 -0.312500
vn -0.0000 1.0000 -0.0000
vn -1.0000 -0.0000 -0.0000
vn -0.0000 -0.0000 1.0000
vn -0.0000 -0.0000 -1.0000
vn 1.0000 -0.0000 -0.0000
vt 0.312500 0.312500
vt 0.437500 0.437500
vt 0.375000 0.437500
vt 0.312500 0.187500
vt 0.500000 0.187500
vt 0.500000 0.250000
vt 0.500000 0.500000
vt 0.437500 0.500000
vt 0.187500 0.500000
vt 0.187500 0.250000
vt 0.250000 0.312500
vt 0.750000 0.375000
vt 0.875000 0.312500
vt 0.875000 0.375000
vt 0.937500 0.500000
vt 0.812500 0.500000
vt 0.812500 0.437500
vt 0.375000 0.875000
vt 0.375000 0.687500
vt 0.562500 0.750000
vt 0.250000 0.437500
vt 0.375000 0.500000
vt 0.312500 0.250000
vt 0.500000 0.437500
vt 0.750000 0.625000
vt 0.687500 0.625000
vt 0.687500 0.562500
vt 0.625000 0.562500
vt 0.625000 0.437500
vt 0.687500 0.437500
vt 0.687500 0.375000
vt 0.750000 0.562500
vt 0.937500 0.562500
vt 0.937500 0.437500
vt 0.937500 0.375000
vt 0.750000 0.312500
vt 0.625000 0.875000
vt 0.562500 0.687500
vt 0.625000 0.750000
vt 0.812500 0.312500
vt 0.750000 0.250000
vt 0.687500 0.312500
vt 0.250000 0.375000
vt 0.187500 0.375000
vt 0.812500 0.375000
vt 0.562500 0.375000
vt 0.562500 0.312500
vt 0.500000 0.375000
vt 0.500000 0.312500
vt 0.437500 0.375000
vt 0.437500 0.312500
vt 0.625000 0.312500
vt 0.125000 0.312500
vt 0.562500 0.250000
vt 0.375000 0.250000
vt 0.437500 0.250000
vt 0.812500 0.250000
vt 0.625000 0.250000
vt 0.250000 0.250000
vt 0.375000 0.312500
vt 0.875000 0.250000
vt 0.687500 0.250000
vt 0.125000 0.250000
vt 0.187500 0.312500
vt 0.625000 0.375000
vt 0.125000 0.375000
s 0
usemtl None
f 12/1/1 29/2/1 28/3/1
f 5/4/1 21/5/1 22/6/1
f 36/7/1 31/8/1 27/2/1
f 16/9/1 3/10/1 6/11/1
f 46/12/1 60/13/1 63/14/1
f 71/15/1 69/16/1 62/17/1
f 76/18/1 74/19/1 81/20/1
f 18/21/1 10/11/1 12/1/1
f 33/8/1 32/22/1 28/3/1
f 28/3/1 18/21/1 12/1/1
f 12/1/1 11/23/1 23/6/1
f 23/6/1 35/24/1 29/2/1
f 29/2/1 33/8/1 28/3/1
f 29/2/1 12/1/1 23/6/1
f 8/23/1 5/4/1 22/6/1
f 34/24/1 36/7/1 27/2/1
f 17/21/1 30/22/1 16/9/1
f 8/23/1 9/1/1 6/11/1
f 17/21/1 26/3/1 30/22/1
f 3/10/1 8/23/1 6/11/1
f 6/11/1 17/21/1 16/9/1
f 56/25/1 55/26/1 53/27/1
f 53/27/1 52/28/1 42/29/1
f 45/30/1 44/31/1 46/12/1
f 53/27/1 42/29/1 45/30/1
f 54/32/1 56/25/1 53/27/1
f 68/16/1 72/33/1 54/32/1
f 63/14/1 65/34/1 61/17/1
f 68/16/1 70/15/1 72/33/1
f 63/14/1 64/35/1 65/34/1
f 45/30/1 68/16/1 54/32/1
f 54/32/1 53/27/1 45/30/1
f 46/12/1 43/36/1 60/13/1
f 61/17/1 45/30/1 46/12/1
f 46/12/1 63/14/1 61/17/1
f 61/17/1 68/16/1 45/30/1
f 66/34/1 71/15/1 62/17/1
f 81/20/1 84/37/1 76/18/1
f 74/19/1 80/38/1 81/20/1
f 81/20/1 82/39/1 84/37/1
usemtl None_NONE
f 5/40/2 8/36/2 7/41/2
f 11/12/2 12/31/2 9/42/2
f 9/11/3 12/43/3 10/44/3
f 26/42/4 17/40/4 18/45/4
f 10/31/2 18/46/2 17/47/2
f 28/46/2 32/48/2 30/49/2
f 33/48/5 29/50/5 27/51/5
f 35/46/4 34/47/4 27/52/4
f 22/51/3 23/50/3 11/43/3
f 3/53/3 2/10/3 8/11/3
f 25/54/4 30/42/4 31/52/4
f 66/14/3 62/12/3 61/36/3
f 65/51/5 59/55/5 70/49/5
f 70/53/4 68/11/4 69/43/4
f 42/47/2 52/51/2 47/56/2
f 62/46/2 69/48/2 68/49/2
f 57/57/3 60/40/3 43/42/3
f 43/42/2 46/52/2 41/58/2
f 40/58/3 45/52/3 42/47/3
f 56/1/4 51/23/4 50/55/4
f 56/52/5 54/47/5 49/54/5
f 4/59/3 19/56/3 21/51/3
f 63/60/5 60/1/5 57/23/5
f 59/61/3 64/13/3 63/40/3
f 82/36/5 79/41/5 83/61/5
f 84/51/4 83/56/4 75/62/4
f 81/36/5 80/42/5 77/62/5
f 79/54/3 82/47/3 81/49/3
f 76/53/2 75/63/2 73/23/2
f 77/6/3 80/49/3 74/1/3
f 13/58/2 16/49/2 14/54/2
f 22/11/5 19/10/5 20/23/5
f 39/58/2 44/52/2 45/47/2
f 72/53/4 67/63/4 49/23/4
f 46/42/3 44/52/3 39/58/3
f 53/51/2 55/60/2 50/55/2
f 53/60/4 48/55/4 47/56/4
f 22/11/5 34/51/5 35/50/5
f 4/57/2 5/40/2 7/41/2
f 8/36/2 11/12/2 9/42/2
f 6/64/3 9/11/3 10/44/3
f 28/31/4 26/42/4 18/45/4
f 6/42/2 10/31/2 17/47/2
f 26/47/2 28/46/2 30/49/2
f 31/49/5 33/48/5 27/51/5
f 29/65/4 35/46/4 27/52/4
f 8/11/3 22/51/3 11/43/3
f 2/10/3 3/53/3 1/63/3
f 2/10/3 7/59/3 8/11/3
f 31/52/4 36/47/4 25/54/4
f 32/31/4 33/65/4 31/52/4
f 15/61/4 16/13/4 30/42/4
f 30/42/4 32/31/4 31/52/4
f 30/42/4 25/54/4 15/61/4
f 65/13/3 66/14/3 61/36/3
f 71/48/5 66/50/5 65/51/5
f 67/54/5 72/47/5 70/49/5
f 70/49/5 71/48/5 65/51/5
f 65/51/5 64/60/5 59/55/5
f 59/55/5 67/54/5 70/49/5
f 71/66/4 70/53/4 69/43/4
f 37/54/2 42/47/2 47/56/2
f 61/47/2 62/46/2 68/49/2
f 38/62/3 57/57/3 43/42/3
f 38/62/2 43/42/2 41/58/2
f 37/54/3 40/58/3 42/47/3
f 55/60/4 56/1/4 50/55/4
f 51/58/5 56/52/5 49/54/5
f 5/11/3 4/59/3 21/51/3
f 58/55/5 63/60/5 57/23/5
f 58/57/3 59/61/3 63/40/3
f 84/13/5 82/36/5 83/61/5
f 76/42/4 84/51/4 75/62/4
f 78/41/5 81/36/5 77/62/5
f 78/6/3 79/54/3 81/49/3
f 74/1/2 76/53/2 73/23/2
f 73/23/3 77/6/3 74/1/3
f 3/36/2 13/58/2 1/41/2
f 16/49/2 15/6/2 14/54/2
f 13/58/2 3/36/2 16/49/2
f 20/23/5 34/51/5 22/11/5
f 24/56/5 25/6/5 36/49/5
f 34/51/5 20/23/5 24/56/5
f 22/11/5 21/64/5 19/10/5
f 24/56/5 36/49/5 34/51/5
f 40/54/2 39/58/2 45/47/2
f 54/1/4 72/53/4 49/23/4
f 41/62/3 46/42/3 39/58/3
f 48/56/2 53/51/2 50/55/2
f 52/51/4 53/60/4 47/56/4
f 23/43/5 22/11/5 35/50/5
o Sphere.004_Sphere.007
v -0.125000 -0.500000 -0.187500
v -0.125000 -0.437500 -0.187500
v -0.125000 -0.500000 -0.250000
v -0.125000 -0.437500 -0.250000
v -0.062500 -0.500000 -0.250000
v -0.062500 -0.437500 -0.250000
v -0.062500 -0.375000 -0.250000
v -0.062500 -0.500000 -0.312500
v -0.062500 -0.375000 -0.312500
v 0.000000 -0.500000 -0.187500
v 0.000000 -0.437500 -0.187500
v 0.000000 -0.500000 -0.250000
v 0.000000 -0.437500 -0.250000
v 0.062500 -0.500000 -0.250000
v 0.062500 -0.437500 -0.250000
v 0.000000 -0.375000 -0.250000
v 0.000000 -0.500000 -0.312500
v 0.000000 -0.437500 -0.312500
v 0.000000 -0.500000 -0.375000
v 0.000000 -0.437500 -0.375000
v 0.062500 -0.500000 -0.375000
v 0.062500 -0.437500 -0.375000
v 0.000000 -0.375000 -0.312500
v 0.062500 -0.500000 0.250000
v 0.062500 -0.437500 0.250000
v 0.062500 -0.500000 0.062500
v 0.062500 -0.437500 0.062500
v 0.125000 -0.500000 0.062500
v 0.125000 -0.437500 0.062500
v 0.125000 -0.500000 0.000000
v 0.125000 -0.437500 0.000000
v 0.250000 -0.500000 0.250000
v 0.250000 -0.437500 0.250000
v 0.187500 -0.437500 0.187500
v 0.250000 -0.500000 0.187500
v 0.250000 -0.437500 0.187500
v 0.187500 -0.375000 0.187500
v 0.250000 -0.375000 0.187500
v 0.312500 -0.500000 0.187500
v 0.312500 -0.437500 0.187500
v 0.312500 -0.500000 0.125000
v 0.312500 -0.437500 0.125000
v 0.375000 -0.500000 0.125000
v 0.375000 -0.437500 0.125000
v 0.187500 -0.437500 0.062500
v 0.250000 -0.437500 0.062500
v 0.187500 -0.375000 0.062500
v 0.250000 -0.375000 0.062500
v 0.312500 -0.500000 0.062500
v 0.312500 -0.437500 0.062500
v 0.312500 -0.500000 0.000000
v 0.312500 -0.437500 0.000000
v 0.375000 -0.500000 0.062500
v 0.375000 -0.437500 0.062500
v -0.375000 -0.500000 0.375000
v -0.375000 -0.437500 0.375000
v -0.375000 -0.437500 0.312500
v -0.375000 -0.375000 0.312500
v -0.312500 -0.437500 0.375000
v -0.312500 -0.437500 0.312500
v -0.250000 -0.437500 0.375000
v -0.250000 -0.437500 0.312500
v -0.312500 -0.375000 0.375000
v -0.312500 -0.375000 0.312500
v -0.250000 -0.375000 0.375000
v -0.250000 -0.375000 0.312500
v -0.375000 -0.500000 0.250000
v -0.375000 -0.375000 0.250000
v -0.312500 -0.437500 0.250000
v -0.312500 -0.500000 0.250000
v -0.312500 -0.500000 0.187500
v -0.312500 -0.437500 0.187500
v -0.187500 -0.437500 0.312500
v -0.125000 -0.500000 0.375000
v -0.125000 -0.437500 0.375000
v -0.125000 -0.500000 0.312500
v -0.125000 -0.437500 0.312500
v -0.187500 -0.375000 0.312500
v -0.062500 -0.500000 0.312500
v -0.062500 -0.437500 0.312500
v -0.187500 -0.437500 0.250000
v -0.187500 -0.500000 0.250000
v -0.187500 -0.375000 0.250000
v -0.187500 -0.500000 0.187500
v -0.187500 -0.437500 0.187500
v -0.062500 -0.500000 0.250000
v -0.062500 -0.437500 0.250000
v -0.050795 -0.437500 0.250000
v -0.050795 -0.500000 0.062500
v -0.050795 -0.437500 0.062500
v -0.050795 -0.500000 0.250000
v -0.125000 -0.500000 -0.041627
v -0.125000 -0.437500 -0.041627
v 0.000000 -0.500000 -0.041627
v 0.000000 -0.437500 -0.041627
v -0.187500 -0.500000 -0.095306
v -0.187500 -0.437500 -0.095306
v -0.312500 -0.500000 -0.095306
v -0.312500 -0.437500 -0.095306
v -0.187500 -0.437500 0.077768
v -0.187500 -0.500000 0.077768
v -0.062500 -0.437500 0.077768
v -0.062500 -0.500000 0.077768
v 0.125000 -0.500000 -0.137345
v 0.125000 -0.437500 -0.137345
v 0.312500 -0.500000 -0.137345
v 0.312500 -0.437500 -0.137345
v 0.062500 -0.500000 -0.087191
v 0.062500 -0.437500 -0.087191
v 0.125000 -0.500000 -0.087191
v 0.125000 -0.437500 -0.087191
v 0.009651 -0.437500 0.062500
v 0.009651 -0.375000 0.062500
v 0.009651 -0.437500 0.187500
v 0.009651 -0.375000 0.187500
v 0.000000 -0.437500 -0.129371
v 0.062500 -0.500000 -0.129371
v 0.062500 -0.437500 -0.129371
v 0.000000 -0.500000 -0.129371
vn -0.0000 -0.0000 1.0000
vn -1.0000 -0.0000 -0.0000
vn 1.0000 -0.0000 -0.0000
vn -0.0000 1.0000 -0.0000
vn -0.0000 -0.0000 -1.0000
vn -0.0000 -1.0000 -0.0000
vt 0.750000 0.312500
vt 0.750000 0.375000
vt 0.687500 0.375000
vt 0.750000 0.250000
vt 0.875000 0.250000
vt 0.812500 0.312500
vt 0.312500 0.312500
vt 0.312500 0.250000
vt 0.875000 0.375000
vt 0.875000 0.437500
vt 0.812500 0.437500
vt 0.250000 0.375000
vt 0.187500 0.375000
vt 0.187500 0.312500
vt 0.812500 0.250000
vt 0.625000 0.500000
vt 0.812500 0.500000
vt 0.500000 0.312500
vt 0.500000 0.250000
vt 0.562500 0.250000
vt 0.437500 0.250000
vt 0.437500 0.312500
vt 0.375000 0.312500
vt 0.375000 0.187500
vt 0.187500 0.187500
vt 0.125000 0.187500
vt 0.125000 0.125000
vt 0.562500 0.312500
vt 0.750000 0.437500
vt 0.687500 0.312500
vt 0.812500 0.375000
vt 0.250000 0.312500
vt 0.125000 0.312500
vt 0.062500 0.312500
vt 0.125000 0.250000
vt 0.562500 0.437500
vt 0.625000 0.437500
vt 0.500000 0.375000
vt 0.437500 0.375000
vt 0.937500 0.312500
vt 0.375000 0.250000
vt 0.687500 0.437500
vt 0.875000 0.312500
vt 0.437500 0.750000
vt 0.375000 0.750000
vt 0.375000 0.687500
vt 0.187500 0.250000
vt 0.125000 0.375000
vt 0.250000 0.187500
vt 0.312500 0.187500
vt 0.187500 0.125000
vt 0.062500 0.250000
vt 0.250000 0.250000
vt 0.562500 0.750000
vt 0.562500 0.875000
vt 0.500000 0.812500
vt 0.937500 0.250000
vt 0.500000 0.687500
vt 0.500000 0.750000
vt 0.312500 0.375000
vt 0.375000 0.375000
vt 0.000000 0.000000
vt 0.625000 0.375000
vt 0.625000 0.312500
vt 0.375000 0.125000
vt 0.500000 0.875000
vt 0.250000 0.125000
vt 0.437500 0.187500
vt 0.687500 0.250000
vt 0.437500 0.812500
vt 0.625000 0.250000
vt 0.562500 0.375000
s 0
usemtl None.001
f 120/67/6 122/68/6 121/69/6
f 151/70/7 139/71/7 141/72/7
f 171/73/8 170/74/8 187/74/8 186/73/8
f 128/75/9 138/76/9 134/77/9
f 150/78/8 149/79/8 145/80/8
f 125/81/6 127/71/6 126/72/6
f 115/82/9 136/83/9 191/83/9 189/82/9
f 86/73/7 85/74/7 176/74/7 177/73/7
f 90/84/10 89/85/10 87/86/10
f 163/87/6 164/88/6 161/89/6
f 161/90/9 171/87/9 165/74/9
f 123/81/6 124/72/6 120/67/6
f 144/91/9 141/92/9 140/93/9
f 135/86/8 136/94/8 133/85/8
f 122/67/9 132/95/9 121/96/9
f 130/95/9 126/97/9 134/77/9
f 132/79/10 130/80/10 129/98/10
f 134/99/10 138/100/10 133/101/10
f 112/86/7 113/94/7 114/85/7
f 131/78/10 129/98/10 196/98/10 197/78/10
f 107/75/8 100/97/8 97/72/8
f 111/102/9 113/103/9 195/103/9 193/102/9
f 165/74/9 171/87/9 186/87/9 184/74/9
f 102/80/7 104/99/7 103/101/7
f 97/84/6 100/104/6 91/105/6
f 99/72/8 98/81/8 106/106/8
f 147/75/7 148/97/7 144/72/7
f 158/107/6 159/89/6 145/98/6
f 111/89/10 110/107/10 173/107/10 174/89/10
f 136/94/8 134/84/8 133/85/8
f 132/95/9 131/108/9 121/96/9
f 97/72/7 96/81/7 203/81/7 200/72/7
f 126/88/8 124/89/8 123/107/8
f 116/70/6 117/67/6 109/94/6
f 117/70/9 120/67/9 118/96/9
f 127/71/6 128/109/6 126/72/6
f 104/88/10 106/89/10 103/87/10
f 90/110/9 88/111/9 86/112/9
f 145/98/6 149/78/6 143/80/6
f 92/113/7 90/98/7 93/79/7
f 109/86/9 117/70/9 118/96/9
f 141/99/6 144/80/6 142/114/6
f 113/94/7 115/84/7 114/85/7
f 150/115/9 162/116/9 167/74/9
f 115/82/9 129/108/9 130/95/9
f 169/73/9 156/80/9 153/113/9
f 148/91/9 147/117/9 150/115/9
f 138/100/10 137/118/10 133/101/10
f 118/96/6 120/67/6 121/69/6
f 86/73/7 88/98/7 87/119/7
f 99/120/9 106/121/9 102/122/9
f 106/89/10 105/107/10 103/87/10
f 98/81/8 105/123/8 106/106/8
f 95/124/9 97/125/9 90/110/9
f 100/125/9 107/122/9 91/110/9
f 167/126/8 162/78/8 157/98/8
f 108/86/6 116/70/6 109/94/6
f 130/95/9 136/83/9 115/82/9
f 132/104/8 122/127/8 120/89/8
f 102/88/10 101/87/10 92/85/10
f 112/128/11 110/128/11 192/128/11 194/128/11
f 101/113/7 102/80/7 103/101/7
f 169/89/8 165/73/8 168/107/8
f 113/103/9 109/86/9 118/96/9
f 152/101/9 142/92/9 148/91/9
f 153/67/10 154/70/10 151/81/10
f 141/72/7 142/97/7 152/68/7
f 97/72/8 95/67/8 94/70/8
f 144/80/6 148/79/6 142/114/6
f 131/78/10 132/79/10 129/98/10
f 110/128/11 108/128/11 175/128/11 173/128/11
f 90/88/6 97/84/6 91/105/6
f 167/129/10 165/130/10 153/67/10
f 102/109/8 107/75/8 97/72/8
f 90/110/9 86/112/9 95/124/9
f 160/107/6 163/87/6 161/89/6
f 143/109/7 147/75/7 144/72/7
f 150/115/9 167/74/9 152/101/9
f 157/116/9 159/131/9 161/90/9
f 93/104/10 107/105/10 102/88/10
f 165/73/8 166/74/8 168/107/8
f 115/82/9 113/103/9 129/108/9
f 136/94/8 135/86/8 190/86/8 191/94/8
f 106/121/9 104/132/9 102/122/9
f 85/74/7 86/73/7 87/119/7
f 157/116/9 146/115/9 145/133/9
f 85/128/11 94/128/11 178/128/11 176/128/11
f 130/95/9 120/67/9 126/97/9
f 90/98/7 92/113/7 89/119/7
f 119/70/6 123/81/6 120/67/6
f 171/73/8 164/98/8 163/119/8
f 139/71/7 140/109/7 141/72/7
f 143/80/6 140/99/6 139/101/6
f 161/90/9 164/134/9 171/87/9
f 102/88/10 92/85/10 93/104/10
f 143/80/6 139/101/6 145/98/6
f 143/117/9 144/91/9 140/93/9
f 157/73/6 162/126/6 150/78/6
f 139/101/6 158/107/6 145/98/6
f 165/73/8 167/126/8 157/98/8
f 146/98/8 150/78/8 145/80/8
f 155/135/7 156/96/7 183/96/7 182/135/7
f 113/103/9 118/96/9 129/108/9
f 126/97/9 120/67/9 124/72/9
f 146/98/6 157/73/6 150/78/6
f 113/103/9 111/102/9 109/86/9
f 107/122/9 93/136/9 91/110/9
f 169/89/8 168/107/8 180/107/8 181/89/8
f 170/74/8 171/73/8 163/119/8
f 130/84/8 132/104/8 120/89/8
f 141/72/7 152/68/7 151/70/7
f 118/96/6 121/69/6 199/69/6 198/96/6
f 157/116/9 145/133/9 159/131/9
f 88/94/10 90/84/10 87/86/10
f 98/81/8 99/72/8 202/72/8 201/81/8
f 153/67/10 151/81/10 152/97/10
f 165/74/9 169/73/9 153/113/9
f 102/122/9 97/125/9 99/120/9
f 161/98/8 159/80/8 158/113/8
f 137/85/8 138/84/8 127/87/8
f 130/95/9 134/77/9 136/83/9
f 90/98/7 91/78/7 93/79/7
f 149/78/6 147/79/6 143/80/6
f 154/70/7 153/67/7 155/135/7
f 147/117/9 149/133/9 150/115/9
f 119/107/8 120/89/8 116/74/8
f 161/90/9 165/74/9 157/116/9
f 120/89/8 117/73/8 116/74/8
f 134/77/9 126/97/9 128/75/9
f 160/119/8 161/98/8 158/113/8
f 152/97/10 167/129/10 153/67/10
f 138/84/8 128/88/8 127/87/8
f 125/87/8 126/88/8 123/107/8
f 96/81/8 97/72/8 94/70/8
f 152/101/9 148/91/9 150/115/9
f 153/67/7 156/96/7 155/135/7
f 172/67/7 174/94/7 173/86/7
f 175/70/7 172/67/7 173/86/7
f 109/86/9 111/102/9 174/102/9 172/86/9
f 108/86/6 109/94/6 172/94/6 175/86/6
f 179/84/6 177/89/6 176/107/6
f 178/85/6 179/84/6 176/107/6
f 95/124/9 86/112/9 177/112/9 179/124/9
f 94/70/8 95/67/8 179/67/8 178/70/8
f 181/130/10 180/137/10 183/67/10
f 180/137/10 182/70/10 183/67/10
f 156/80/9 169/73/9 181/73/9 183/80/9
f 168/128/11 155/128/11 182/128/11 180/128/11
f 184/130/10 186/84/10 185/137/10
f 186/84/10 187/85/10 185/137/10
f 170/128/11 166/128/11 185/128/11 187/128/11
f 166/74/7 165/73/7 184/73/7 185/74/7
f 191/99/10 190/101/10 188/74/10
f 189/73/10 191/99/10 188/74/10
f 114/85/7 115/84/7 189/84/7 188/85/7
f 135/128/11 114/128/11 188/128/11 190/128/11
f 193/89/10 195/73/10 192/107/10
f 195/73/10 194/74/10 192/107/10
f 110/107/7 111/89/7 193/89/7 192/107/7
f 113/94/8 112/86/8 194/86/8 195/94/8
f 197/138/7 196/94/7 198/96/7
f 199/69/7 197/138/7 198/96/7
f 129/108/11 118/96/11 198/96/11 196/108/11
f 121/96/9 131/108/9 197/108/9 199/96/9
f 201/86/6 202/94/6 200/84/6
f 203/85/6 201/86/6 200/84/6
f 96/128/11 98/128/11 201/128/11 203/128/11
f 99/120/9 97/125/9 200/125/9 202/120/9
