# Blender 4.0.2
# www.blender.org
mtllib loose_rocks_2NEW.mtl
o Sphere.004_Sphere.007
v -0.125000 -0.500000 -0.187500
v -0.125000 -0.437500 -0.187500
v -0.125000 -0.500000 -0.250000
v -0.125000 -0.437500 -0.250000
v -0.062500 -0.500000 -0.250000
v -0.062500 -0.437500 -0.250000
v -0.062500 -0.375000 -0.250000
v -0.062500 -0.500000 -0.312500
v -0.062500 -0.375000 -0.312500
v 0.000000 -0.500000 -0.187500
v 0.000000 -0.437500 -0.187500
v 0.000000 -0.500000 -0.250000
v 0.000000 -0.437500 -0.250000
v 0.062500 -0.500000 -0.250000
v 0.062500 -0.437500 -0.250000
v 0.000000 -0.375000 -0.250000
v 0.000000 -0.500000 -0.312500
v 0.000000 -0.437500 -0.312500
v 0.000000 -0.500000 -0.375000
v 0.000000 -0.437500 -0.375000
v 0.062500 -0.500000 -0.375000
v 0.062500 -0.437500 -0.375000
v 0.000000 -0.375000 -0.312500
v 0.062500 -0.500000 0.250000
v 0.062500 -0.437500 0.250000
v 0.062500 -0.500000 0.062500
v 0.062500 -0.437500 0.062500
v 0.125000 -0.500000 0.062500
v 0.125000 -0.437500 0.062500
v 0.125000 -0.500000 0.000000
v 0.125000 -0.437500 0.000000
v 0.250000 -0.500000 0.250000
v 0.250000 -0.437500 0.250000
v 0.187500 -0.437500 0.187500
v 0.250000 -0.500000 0.187500
v 0.250000 -0.437500 0.187500
v 0.187500 -0.375000 0.187500
v 0.250000 -0.375000 0.187500
v 0.312500 -0.500000 0.187500
v 0.312500 -0.437500 0.187500
v 0.312500 -0.500000 0.125000
v 0.312500 -0.437500 0.125000
v 0.375000 -0.500000 0.125000
v 0.375000 -0.437500 0.125000
v 0.187500 -0.437500 0.062500
v 0.250000 -0.437500 0.062500
v 0.187500 -0.375000 0.062500
v 0.250000 -0.375000 0.062500
v 0.312500 -0.500000 0.062500
v 0.312500 -0.437500 0.062500
v 0.312500 -0.500000 0.000000
v 0.312500 -0.437500 0.000000
v 0.375000 -0.500000 0.062500
v 0.375000 -0.437500 0.062500
v -0.375000 -0.500000 0.375000
v -0.375000 -0.437500 0.375000
v -0.375000 -0.437500 0.312500
v -0.375000 -0.375000 0.312500
v -0.312500 -0.437500 0.375000
v -0.312500 -0.437500 0.312500
v -0.250000 -0.437500 0.375000
v -0.250000 -0.437500 0.312500
v -0.312500 -0.375000 0.375000
v -0.312500 -0.375000 0.312500
v -0.250000 -0.375000 0.375000
v -0.250000 -0.375000 0.312500
v -0.375000 -0.500000 0.250000
v -0.375000 -0.375000 0.250000
v -0.312500 -0.437500 0.250000
v -0.312500 -0.500000 0.250000
v -0.312500 -0.500000 0.187500
v -0.312500 -0.437500 0.187500
v -0.187500 -0.437500 0.312500
v -0.125000 -0.500000 0.375000
v -0.125000 -0.437500 0.375000
v -0.125000 -0.500000 0.312500
v -0.125000 -0.437500 0.312500
v -0.187500 -0.375000 0.312500
v -0.062500 -0.500000 0.312500
v -0.062500 -0.437500 0.312500
v -0.187500 -0.437500 0.250000
v -0.187500 -0.500000 0.250000
v -0.187500 -0.375000 0.250000
v -0.187500 -0.500000 0.187500
v -0.187500 -0.437500 0.187500
v -0.062500 -0.500000 0.250000
v -0.062500 -0.437500 0.250000
v -0.125000 -0.500000 0.024695
v -0.125000 -0.437500 0.024695
v 0.000000 -0.500000 0.024695
v 0.000000 -0.437500 0.024695
v 0.000000 -0.437500 -0.019483
v 0.062500 -0.500000 -0.019483
v 0.062500 -0.437500 -0.019483
v 0.000000 -0.500000 -0.019483
v -0.002839 -0.437500 0.250000
v -0.002839 -0.500000 0.062500
v -0.002839 -0.437500 0.062500
v -0.002839 -0.500000 0.250000
v 0.065511 -0.437500 0.062500
v 0.065511 -0.375000 0.062500
v 0.065511 -0.437500 0.187500
v 0.065511 -0.375000 0.187500
v 0.062500 -0.437500 0.386055
v 0.250000 -0.500000 0.386055
v 0.250000 -0.437500 0.386055
v 0.062500 -0.500000 0.386055
v -0.187500 -0.500000 0.076032
v -0.187500 -0.437500 0.076032
v -0.312500 -0.500000 0.076032
v -0.312500 -0.437500 0.076032
v -0.312500 -0.437500 0.165357
v -0.312500 -0.500000 0.165357
v -0.187500 -0.437500 0.165357
v -0.187500 -0.375000 0.165357
v -0.375000 -0.500000 0.165357
v -0.375000 -0.375000 0.165357
v -0.312500 -0.437500 0.095602
v -0.312500 -0.500000 0.095602
v -0.187500 -0.437500 0.095602
v -0.187500 -0.375000 0.095602
v -0.375000 -0.500000 0.095602
v -0.375000 -0.375000 0.095602
v -0.187500 -0.500000 -0.127786
v -0.187500 -0.437500 -0.127786
v -0.312500 -0.500000 -0.127786
v -0.312500 -0.437500 -0.127786
v -0.312500 -0.437500 -0.069328
v -0.312500 -0.500000 -0.069328
v -0.187500 -0.437500 -0.069328
v -0.187500 -0.375000 -0.069328
v -0.375000 -0.500000 -0.069328
v -0.375000 -0.375000 -0.069328
v -0.104707 -0.437500 0.250000
v -0.104707 -0.500000 0.062500
v -0.104707 -0.437500 0.062500
v -0.104707 -0.500000 0.250000
v -0.037395 -0.437500 0.062500
v -0.037395 -0.375000 0.062500
v -0.037395 -0.437500 0.187500
v -0.037395 -0.375000 0.187500
v 0.187500 -0.437500 0.189395
v 0.187500 -0.375000 0.189395
v 0.065511 -0.437500 0.189395
v 0.065511 -0.375000 0.189395
v -0.037395 -0.437500 0.189395
v -0.037395 -0.375000 0.189395
v 0.187500 -0.437500 0.236623
v 0.187500 -0.375000 0.236623
v 0.065511 -0.437500 0.236623
v 0.065511 -0.375000 0.236623
v -0.037395 -0.437500 0.236623
v -0.037395 -0.375000 0.236623
v 0.209078 -0.500000 -0.250000
v 0.209078 -0.500000 -0.019483
v 0.209078 -0.437500 -0.250000
v 0.209078 -0.437500 -0.019483
v 0.000000 -0.437500 -0.041319
v 0.000000 -0.375000 -0.041319
v -0.062500 -0.437500 -0.041319
v -0.062500 -0.375000 -0.041319
v 0.092183 -0.437500 -0.250000
v 0.092183 -0.375000 -0.250000
v 0.092183 -0.437500 -0.041319
v 0.092183 -0.375000 -0.041319
v -0.124797 -0.437500 0.250000
v -0.124797 -0.437500 0.187500
v -0.124797 -0.500000 0.250000
v -0.124797 -0.500000 0.187500
v -0.158893 -0.500000 0.187500
v -0.158893 -0.437500 0.187500
v -0.158893 -0.500000 0.076032
v -0.158893 -0.437500 0.076032
v 0.187500 -0.314389 0.187500
v 0.187500 -0.314389 0.062500
v 0.065511 -0.314389 0.187500
v 0.065511 -0.314389 0.062500
v 0.065511 -0.334693 0.062500
v -0.037395 -0.334693 0.062500
v 0.065511 -0.334693 0.187500
v -0.037395 -0.334693 0.187500
v 0.000000 -0.357309 -0.041319
v 0.000000 -0.357309 -0.250000
v 0.092183 -0.357309 -0.041319
v 0.092183 -0.357309 -0.250000
v -0.062500 -0.317179 -0.250000
v 0.000000 -0.317179 -0.250000
v -0.062500 -0.317179 -0.041319
v 0.000000 -0.317179 -0.041319
v -0.187500 -0.295352 0.165357
v -0.187500 -0.295352 0.250000
v -0.375000 -0.295352 0.250000
v -0.375000 -0.295352 0.165357
v -0.375000 -0.325660 0.165357
v -0.187500 -0.325660 0.165357
v -0.375000 -0.325660 0.095602
v -0.187500 -0.325660 0.095602
vn -0.0000 -0.0000 1.0000
vn -1.0000 -0.0000 -0.0000
vn -0.0000 -0.0000 -1.0000
vn -0.0000 1.0000 -0.0000
vn 1.0000 -0.0000 -0.0000
vn -0.0000 -1.0000 -0.0000
vt 0.750000 0.312500
vt 0.750000 0.375000
vt 0.687500 0.375000
vt 0.750000 0.250000
vt 0.875000 0.250000
vt 0.812500 0.312500
vt 0.625000 0.312500
vt 0.500000 0.312500
vt 0.625000 0.250000
vt 0.875000 0.375000
vt 0.875000 0.437500
vt 0.812500 0.437500
vt 0.250000 0.375000
vt 0.187500 0.375000
vt 0.187500 0.312500
vt 0.812500 0.250000
vt 0.125000 0.312500
vt 0.125000 0.250000
vt 0.312500 0.250000
vt 0.312500 0.312500
vt 0.500000 0.250000
vt 0.562500 0.250000
vt 0.437500 0.250000
vt 0.437500 0.312500
vt 0.375000 0.312500
vt 0.375000 0.187500
vt 0.187500 0.187500
vt 0.125000 0.187500
vt 0.125000 0.125000
vt 0.562500 0.312500
vt 0.750000 0.437500
vt 0.687500 0.312500
vt 0.812500 0.375000
vt 0.250000 0.312500
vt 0.062500 0.312500
vt 0.687500 0.437500
vt 0.375000 0.250000
vt 0.500000 0.750000
vt 0.437500 0.750000
vt 0.937500 0.312500
vt 0.562500 0.750000
vt 0.875000 0.312500
vt 0.375000 0.750000
vt 0.375000 0.687500
vt 0.187500 0.250000
vt 0.125000 0.375000
vt 0.250000 0.187500
vt 0.312500 0.187500
vt 0.625000 0.500000
vt 0.187500 0.125000
vt 0.062500 0.250000
vt 0.250000 0.250000
vt 0.562500 0.875000
vt 0.500000 0.812500
vt 0.937500 0.250000
vt 0.500000 0.687500
vt 0.312500 0.375000
vt 0.000000 0.000000
vt 0.812500 0.500000
vt 0.500000 0.375000
vt 0.375000 0.375000
vt 0.625000 0.437500
vt 0.375000 0.125000
vt 0.437500 0.375000
vt 0.500000 0.875000
vt 0.250000 0.125000
vt 0.437500 0.187500
vt 0.562500 0.437500
vt 0.437500 0.812500
vt 0.687500 0.250000
vt 0.625000 0.375000
vt 0.562500 0.375000
s 0
usemtl None
f 36/1/1 38/2/1 37/3/1
f 67/4/2 55/5/2 57/6/2
f 81/7/3 87/8/3 82/9/3
f 44/10/4 54/11/4 50/12/4
f 66/13/5 65/14/5 61/15/5
f 41/16/1 43/5/1 42/6/1
f 52/17/3 51/18/3 30/19/3
f 2/20/2 1/19/2 88/19/2 89/20/2
f 6/8/3 5/21/3 3/22/3
f 79/23/1 80/24/1 77/25/1
f 77/26/4 87/23/4 81/19/4
f 39/16/1 40/6/1 36/1/1
f 60/27/4 57/28/4 56/29/4
f 51/22/5 52/30/5 49/21/5
f 38/1/4 48/31/4 37/32/4
f 46/31/4 42/33/4 50/12/4
f 48/14/3 46/15/3 45/34/3
f 50/17/3 54/35/3 49/18/3
f 28/22/2 29/30/2 30/21/2
f 45/36/6 34/32/6 102/32/6 100/36/6
f 23/10/5 16/33/5 13/6/5
f 27/25/3 29/20/3 26/37/3
f 87/8/3 86/21/3 82/9/3
f 18/15/2 20/17/2 19/18/2
f 16/38/3 7/39/3 186/39/3 187/38/3
f 15/6/5 14/16/5 22/40/5
f 63/10/2 64/33/2 60/6/2
f 74/37/1 75/25/1 61/34/1
f 27/25/3 26/37/3 97/37/3 98/25/3
f 52/30/5 50/8/5 49/21/5
f 48/31/4 47/36/4 37/32/4
f 15/41/4 13/38/4 92/38/4 94/41/4
f 42/24/5 40/25/5 39/37/5
f 25/30/2 24/22/2 107/22/2 104/30/2
f 33/4/4 36/1/4 34/32/4
f 43/5/1 44/42/1 42/6/1
f 20/24/3 22/25/3 19/23/3
f 6/39/4 4/43/4 2/44/4
f 61/34/1 65/13/1 59/15/1
f 8/45/2 6/34/2 9/14/2
f 25/22/4 33/4/4 34/32/4
f 57/17/1 60/15/1 58/46/1
f 29/30/2 31/8/2 30/21/2
f 66/47/4 78/48/4 83/19/4
f 31/49/4 45/36/4 46/31/4
f 85/20/4 72/15/4 69/45/4
f 64/27/4 63/50/4 66/47/4
f 54/35/3 53/51/3 49/18/3
f 34/32/1 36/1/1 37/3/1
f 2/20/2 4/34/2 3/52/2
f 15/41/4 22/53/4 18/54/4
f 22/25/3 21/37/3 19/23/3
f 14/16/5 21/55/5 22/40/5
f 11/56/4 13/38/4 6/39/4
f 16/38/4 23/54/4 7/39/4
f 83/57/5 78/13/5 73/34/5
f 24/58/6 32/58/6 105/58/6 107/58/6
f 46/31/4 52/59/4 31/49/4
f 48/60/5 38/61/5 36/25/5
f 18/24/3 17/23/3 8/21/3
f 29/20/3 28/19/3 26/37/3
f 17/45/2 18/15/2 19/18/2
f 85/20/4 81/19/4 166/19/4 167/20/4
f 29/62/4 25/22/4 34/32/4
f 68/18/4 58/28/4 64/27/4
f 69/1/5 70/4/5 113/4/5 112/1/5
f 57/6/2 58/33/2 68/2/2
f 13/6/5 11/1/5 10/4/5
f 60/15/1 64/14/1 58/46/1
f 47/13/3 48/14/3 45/34/3
f 26/58/6 24/58/6 99/58/6 97/58/6
f 6/39/6 13/38/6 158/38/6 160/39/6
f 68/18/1 83/19/1 191/19/1 192/18/1
f 18/42/5 23/10/5 13/6/5
f 6/39/4 2/44/4 11/56/4
f 76/37/1 79/23/1 77/25/1
f 59/42/2 63/10/2 60/6/2
f 66/47/4 83/19/4 68/18/4
f 73/48/4 75/63/4 77/26/4
f 9/60/3 23/64/3 18/24/3
f 81/7/1 82/9/1 168/9/1 166/7/1
f 31/49/4 29/62/4 45/36/4
f 31/20/3 52/17/3 30/19/3
f 22/53/4 20/65/4 18/54/4
f 1/19/2 2/20/2 3/52/2
f 73/48/4 62/47/4 61/66/4
f 1/58/6 10/58/6 90/58/6 88/58/6
f 46/31/4 36/1/4 42/33/4
f 6/34/2 8/45/2 5/52/2
f 35/4/1 39/16/1 36/1/1
f 87/20/5 80/34/5 79/52/5
f 55/5/2 56/42/2 57/6/2
f 59/15/1 56/17/1 55/18/1
f 77/26/4 80/67/4 87/23/4
f 18/24/3 8/21/3 9/60/3
f 59/15/1 55/18/1 61/34/1
f 59/50/4 60/27/4 56/29/4
f 73/20/1 78/57/1 66/13/1
f 55/18/1 74/37/1 61/34/1
f 81/20/5 83/57/5 73/34/5
f 62/34/5 66/13/5 61/15/5
f 72/15/4 85/20/4 109/20/4 111/15/4
f 29/62/4 34/32/4 45/36/4
f 42/33/4 36/1/4 40/6/4
f 62/34/1 73/20/1 66/13/1
f 29/62/4 27/68/4 25/22/4
f 23/54/4 9/69/4 7/39/4
f 71/70/2 72/32/2 111/32/2 110/70/2
f 86/19/5 87/20/5 79/52/5
f 46/8/5 48/60/5 36/25/5
f 57/6/2 68/2/2 67/4/2
f 47/13/3 45/34/3 100/34/3 101/13/3
f 73/48/4 61/66/4 75/63/4
f 4/30/3 6/8/3 3/22/3
f 12/58/6 14/58/6 93/58/6 95/58/6
f 83/57/5 81/20/5 114/20/5 115/57/5
f 81/19/4 85/20/4 69/45/4
f 18/54/4 13/38/4 15/41/4
f 77/34/5 75/15/5 74/45/5
f 53/21/5 54/8/5 43/23/5
f 46/31/4 50/12/4 52/59/4
f 6/34/2 7/13/2 9/14/2
f 65/13/1 63/14/1 59/15/1
f 70/4/2 69/1/2 71/70/2
f 63/50/4 65/66/4 66/47/4
f 35/37/5 36/25/5 32/19/5
f 77/26/4 81/19/4 73/48/4
f 36/25/5 33/20/5 32/19/5
f 50/12/4 42/33/4 44/10/4
f 76/52/5 77/34/5 74/45/5
f 81/19/6 69/45/6 112/45/6 114/19/6
f 54/8/5 44/24/5 43/23/5
f 41/23/5 42/24/5 39/37/5
f 12/16/5 13/6/5 10/4/5
f 68/18/4 64/27/4 66/47/4
f 69/1/2 72/32/2 71/70/2
f 91/8/1 89/25/1 88/37/1
f 90/21/1 91/8/1 88/37/1
f 11/56/4 2/44/4 89/44/4 91/56/4
f 10/4/5 11/1/5 91/1/5 90/4/5
f 93/22/1 94/30/1 92/8/1
f 95/21/1 93/22/1 92/8/1
f 93/58/6 14/58/6 154/58/6 155/58/6
f 13/6/2 12/16/2 95/16/2 92/6/2
f 97/58/6 99/58/6 137/58/6 135/58/6
f 96/22/4 98/68/4 136/68/4 134/22/4
f 25/22/4 27/68/4 98/68/4 96/22/4
f 24/22/1 25/30/1 96/30/1 99/22/1
f 100/36/6 102/32/6 140/32/6 138/36/6
f 101/13/3 139/13/3 179/13/3 178/13/3
f 103/32/1 37/32/1 174/32/1 176/32/1
f 141/3/2 140/32/2 146/32/2 147/3/2
f 105/4/1 106/1/1 104/30/1
f 107/22/1 105/4/1 104/30/1
f 33/4/4 25/22/4 104/22/4 106/4/4
f 32/19/5 33/20/5 106/20/5 105/19/5
f 108/58/6 110/58/6 126/58/6 124/58/6
f 111/15/4 109/20/4 125/20/4 127/15/4
f 84/58/6 71/58/6 110/58/6 108/58/6
f 108/37/3 109/25/3 173/25/3 172/37/3
f 115/57/5 114/20/5 120/20/5 121/57/5
f 114/19/6 112/45/6 118/45/6 120/19/6
f 112/1/5 113/4/5 119/4/5 118/1/5
f 116/4/2 117/2/2 123/2/2 122/4/2
f 70/58/6 67/58/6 116/58/6 113/58/6
f 67/4/2 68/2/2 117/2/2 116/4/2
f 122/4/2 123/2/2 133/2/2 132/4/2
f 119/58/6 122/58/6 132/58/6 129/58/6
f 123/18/4 121/19/4 131/19/4 133/18/4
f 121/57/5 120/20/5 130/20/5 131/57/5
f 121/19/3 123/18/3 196/18/3 197/19/3
f 113/58/6 116/58/6 122/58/6 119/58/6
f 125/7/3 124/9/3 127/1/3
f 124/9/3 126/4/3 127/1/3
f 109/25/5 108/37/5 124/37/5 125/25/5
f 110/70/2 111/32/2 127/32/2 126/70/2
f 128/1/3 129/4/3 132/16/3
f 131/71/3 130/7/3 128/1/3
f 128/1/3 132/16/3 133/33/3
f 133/33/3 131/71/3 128/1/3
f 118/1/5 119/4/5 129/4/5 128/1/5
f 120/19/6 118/45/6 128/45/6 130/19/6
f 134/1/2 136/30/2 135/22/2
f 137/4/2 134/1/2 135/22/2
f 98/25/3 97/37/3 135/37/3 136/25/3
f 99/22/1 96/30/1 134/30/1 137/22/1
f 139/72/2 138/30/2 140/32/2
f 141/3/2 139/72/2 140/32/2
f 101/13/3 100/34/3 138/34/3 139/13/3
f 103/32/4 141/32/4 147/32/4 145/32/4
f 147/3/2 146/32/2 152/32/2 153/3/2
f 146/32/6 144/32/6 150/32/6 152/32/6
f 37/32/4 103/32/4 145/32/4 143/32/4
f 140/32/6 102/32/6 144/32/6 146/32/6
f 34/32/5 37/3/5 143/3/5 142/32/5
f 102/32/6 34/32/6 142/32/6 144/32/6
f 148/32/1 149/3/1 151/3/1 150/32/1
f 150/32/1 151/3/1 153/3/1 152/32/1
f 144/32/6 142/32/6 148/32/6 150/32/6
f 142/32/5 143/3/5 149/3/5 148/32/5
f 145/32/4 147/32/4 153/32/4 151/32/4
f 143/32/4 145/32/4 151/32/4 149/32/4
f 154/16/5 156/6/5 157/6/5 155/16/5
f 15/41/4 94/41/4 157/41/4 156/41/4
f 14/16/3 15/6/3 156/6/3 154/16/3
f 94/30/1 93/22/1 155/22/1 157/30/1
f 158/8/1 159/60/1 161/64/1
f 160/24/1 158/8/1 161/64/1
f 13/6/3 16/33/3 163/33/3 162/6/3
f 7/13/2 6/34/2 160/34/2 161/13/2
f 162/6/5 163/33/5 165/33/5 164/6/5
f 159/60/1 158/8/1 164/8/1 165/60/1
f 158/38/6 13/38/6 162/38/6 164/38/6
f 163/33/3 16/33/3 183/33/3 185/33/3
f 167/25/5 166/20/5 169/37/5
f 166/20/5 168/19/5 169/37/5
f 82/58/6 84/58/6 169/58/6 168/58/6
f 84/37/3 85/25/3 167/25/3 169/37/3
f 171/25/5 170/37/5 172/37/5 173/25/5
f 84/58/6 108/58/6 172/58/6 170/58/6
f 85/25/1 84/37/1 170/37/1 171/25/1
f 109/20/4 85/20/4 171/20/4 173/20/4
f 174/32/4 175/36/4 177/36/4 176/32/4
f 47/13/3 101/13/3 177/13/3 175/13/3
f 37/32/5 47/36/5 175/36/5 174/32/5
f 101/36/2 103/32/2 176/32/2 177/36/2
f 180/32/4 178/36/4 179/36/4 181/32/4
f 139/72/2 141/3/2 181/3/2 179/72/2
f 103/32/5 101/36/5 178/36/5 180/32/5
f 141/32/1 103/32/1 180/32/1 181/32/1
f 183/38/4 182/38/4 184/38/4 185/38/4
f 159/60/1 165/60/1 184/60/1 182/60/1
f 165/33/5 163/33/5 185/33/5 184/33/5
f 16/38/2 159/38/2 182/38/2 183/38/2
f 187/38/4 186/39/4 188/39/4 189/38/4
f 7/13/2 161/13/2 188/13/2 186/13/2
f 161/64/1 159/60/1 189/60/1 188/64/1
f 159/38/5 16/38/5 187/38/5 189/38/5
f 192/18/4 191/19/4 190/19/4 193/18/4
f 115/19/3 117/18/3 193/18/3 190/19/3
f 83/57/5 115/57/5 190/57/5 191/57/5
f 117/2/2 68/2/2 192/2/2 193/2/2
f 194/18/4 195/19/4 197/19/4 196/18/4
f 115/57/5 121/57/5 197/57/5 195/57/5
f 123/2/2 117/2/2 194/2/2 196/2/2
f 117/18/1 115/19/1 195/19/1 194/18/1
