# Blender 4.0.2
# www.blender.org
mtllib rock_piles_large_1.mtl
o Sphere.000_Sphere.004
v -0.375000 -0.500000 0.312500
v -0.312500 -0.500000 0.312500
v -0.375000 -0.437500 0.312500
v -0.250000 -0.500000 0.375000
v -0.250000 -0.437500 0.375000
v -0.312500 -0.437500 0.250000
v -0.250000 -0.500000 0.312500
v -0.250000 -0.437500 0.312500
v -0.250000 -0.437500 0.250000
v -0.312500 -0.375000 0.250000
v -0.250000 -0.375000 0.312500
v -0.250000 -0.375000 0.250000
v -0.375000 -0.500000 0.187500
v -0.375000 -0.500000 0.125000
v -0.375000 -0.500000 0.062500
v -0.375000 -0.437500 0.062500
v -0.312500 -0.437500 0.125000
v -0.312500 -0.375000 0.125000
v -0.062500 -0.500000 0.375000
v -0.062500 -0.500000 0.250000
v -0.062500 -0.437500 0.375000
v -0.062500 -0.437500 0.312500
v -0.062500 -0.375000 0.312500
v -0.062500 -0.500000 0.125000
v -0.062500 -0.500000 0.062500
v -0.187500 -0.437500 0.125000
v -0.125000 -0.437500 0.125000
v -0.187500 -0.375000 0.125000
v -0.125000 -0.375000 0.125000
v -0.187500 -0.437500 0.062500
v -0.125000 -0.437500 0.062500
v -0.187500 -0.375000 0.062500
v -0.125000 -0.375000 0.062500
v -0.062500 -0.437500 0.125000
v -0.062500 -0.375000 0.125000
v -0.062500 -0.437500 0.062500
v 0.062500 -0.500000 0.125000
v 0.187500 -0.500000 0.250000
v 0.125000 -0.500000 0.187500
v 0.125000 -0.500000 0.125000
v 0.187500 -0.500000 0.187500
v 0.062500 -0.437500 0.125000
v 0.187500 -0.437500 0.250000
v 0.125000 -0.437500 0.187500
v 0.125000 -0.437500 0.125000
v 0.187500 -0.437500 0.187500
v 0.062500 -0.500000 0.000000
v 0.125000 -0.500000 0.000000
v 0.187500 -0.500000 0.000000
v 0.125000 -0.500000 -0.062500
v 0.187500 -0.500000 -0.062500
v 0.062500 -0.437500 0.000000
v 0.125000 -0.437500 0.000000
v 0.187500 -0.437500 0.000000
v 0.125000 -0.437500 -0.062500
v 0.187500 -0.437500 -0.062500
v 0.312500 -0.500000 0.250000
v 0.312500 -0.500000 0.187500
v 0.375000 -0.500000 0.187500
v 0.312500 -0.437500 0.250000
v 0.250000 -0.437500 0.125000
v 0.250000 -0.375000 0.125000
v 0.312500 -0.437500 0.187500
v 0.375000 -0.437500 0.187500
v 0.375000 -0.437500 0.125000
v 0.375000 -0.375000 0.125000
v 0.375000 -0.500000 0.000000
v 0.250000 -0.437500 0.062500
v 0.250000 -0.375000 0.062500
v 0.375000 -0.437500 0.062500
v 0.375000 -0.375000 0.062500
v 0.375000 -0.437500 0.000000
v -0.187500 -0.500000 -0.125000
v -0.187500 -0.437500 -0.125000
v -0.187500 -0.500000 -0.312500
v -0.187500 -0.437500 -0.312500
v 0.000000 -0.500000 -0.125000
v 0.000000 -0.500000 -0.187500
v 0.062500 -0.500000 -0.187500
v 0.000000 -0.437500 -0.125000
v 0.000000 -0.437500 -0.187500
v 0.062500 -0.437500 -0.187500
v 0.062500 -0.500000 -0.312500
v 0.062500 -0.437500 -0.312500
v 0.041599 -0.500000 0.250000
v 0.041599 -0.437500 0.312500
v 0.041599 -0.500000 0.125000
v 0.041599 -0.437500 0.125000
v 0.041599 -0.437500 0.375000
v 0.041599 -0.500000 0.375000
v -0.062500 -0.500000 -0.094334
v -0.125000 -0.437500 -0.094334
v -0.062500 -0.437500 -0.094334
v -0.187500 -0.437500 -0.094334
v -0.375000 -0.500000 -0.094334
v -0.375000 -0.437500 -0.094334
v -0.187500 -0.375000 -0.044067
v -0.125000 -0.375000 -0.044067
v -0.187500 -0.437500 -0.044067
v -0.125000 -0.437500 -0.044067
v -0.125000 -0.375000 0.023327
v -0.062500 -0.375000 0.023327
v -0.062500 -0.437500 0.023327
v -0.125000 -0.437500 0.023327
v 0.187500 -0.500000 -0.128138
v 0.375000 -0.500000 -0.128138
v 0.375000 -0.437500 -0.128138
v 0.187500 -0.500000 -0.190638
v 0.187500 -0.437500 -0.190638
v 0.125000 -0.500000 -0.190638
v 0.125000 -0.437500 -0.190638
v 0.187500 -0.437500 -0.128138
v 0.062500 -0.500000 -0.128138
v 0.125000 -0.500000 -0.128138
v 0.062500 -0.437500 -0.128138
v 0.125000 -0.437500 -0.128138
v 0.130352 -0.375000 0.125000
v 0.130352 -0.437500 0.062500
v 0.130352 -0.437500 0.125000
v 0.130352 -0.375000 0.062500
v 0.250000 -0.437500 -0.057761
v 0.130352 -0.437500 -0.057761
v 0.250000 -0.375000 -0.057761
v 0.375000 -0.375000 -0.057761
v 0.375000 -0.437500 -0.057761
v 0.130352 -0.375000 -0.057761
v -0.290402 -0.500000 -0.125000
v -0.290402 -0.437500 -0.125000
v -0.290402 -0.500000 -0.312500
v -0.290402 -0.437500 -0.312500
v 0.250000 -0.305303 -0.057761
v 0.250000 -0.305303 0.062500
v 0.130352 -0.305303 0.062500
v 0.130352 -0.305303 -0.057761
v -0.187500 -0.359680 -0.312500
v -0.290402 -0.359680 -0.312500
v -0.187500 -0.359680 -0.125000
v -0.290402 -0.359680 -0.125000
v 0.041599 -0.498700 0.271398
v 0.370107 -0.498700 0.271398
v 0.041599 -0.498700 0.339646
v 0.370107 -0.498700 0.339646
v 0.041599 -0.440567 0.271398
v 0.370107 -0.440567 0.271398
v 0.041599 -0.440567 0.339646
v 0.370107 -0.440567 0.339646
v 0.370107 -0.436927 0.339646
v 0.041599 -0.436927 0.339646
v 0.041599 -0.436927 0.271398
v 0.370107 -0.436927 0.271398
v 0.370107 -0.498700 0.487086
v 0.041599 -0.498700 0.487086
v 0.041599 -0.440567 0.487086
v 0.370107 -0.440567 0.487086
v 0.370107 -0.436927 0.487086
v 0.041599 -0.436927 0.487086
v 0.101520 -0.436927 0.307197
v 0.101520 -0.391871 0.307197
v 0.270495 -0.436927 0.307197
v 0.270495 -0.391871 0.307197
v 0.101520 -0.436927 0.460997
v 0.101520 -0.391871 0.460997
v 0.270495 -0.436927 0.460997
v 0.270495 -0.391871 0.460997
v -0.050282 -0.437500 -0.026125
v -0.050282 -0.366430 -0.026125
v 0.119023 -0.437500 -0.026125
v 0.119023 -0.366430 -0.026125
v -0.050282 -0.437500 0.246612
v -0.050282 -0.366430 0.246612
v 0.119023 -0.437500 0.246612
v 0.119023 -0.366430 0.246612
v -0.018024 -0.366430 0.045351
v -0.018024 -0.284171 0.045351
v 0.117879 -0.366430 0.045351
v 0.117879 -0.284171 0.045351
v -0.018024 -0.366430 0.188664
v -0.018024 -0.284171 0.188664
v 0.117879 -0.366430 0.188664
v 0.117879 -0.284171 0.188664
vn -0.0000 1.0000 -0.0000
vn -1.0000 -0.0000 -0.0000
vn -0.0000 -0.0000 1.0000
vn -0.0000 -0.0000 -1.0000
vn 1.0000 -0.0000 -0.0000
vn -0.0000 -1.0000 -0.0000
vt 0.312500 0.312500
vt 0.437500 0.437500
vt 0.375000 0.437500
vt 0.312500 0.187500
vt 0.500000 0.187500
vt 0.500000 0.250000
vt 0.500000 0.500000
vt 0.437500 0.500000
vt 0.187500 0.500000
vt 0.187500 0.250000
vt 0.250000 0.312500
vt 0.750000 0.375000
vt 0.875000 0.312500
vt 0.875000 0.375000
vt 0.937500 0.500000
vt 0.812500 0.500000
vt 0.812500 0.437500
vt 0.375000 0.875000
vt 0.375000 0.687500
vt 0.562500 0.750000
vt 0.250000 0.437500
vt 0.375000 0.500000
vt 0.312500 0.250000
vt 0.500000 0.437500
vt 0.750000 0.625000
vt 0.687500 0.625000
vt 0.687500 0.562500
vt 0.625000 0.562500
vt 0.625000 0.437500
vt 0.687500 0.437500
vt 0.687500 0.375000
vt 0.750000 0.562500
vt 0.937500 0.562500
vt 0.937500 0.437500
vt 0.937500 0.375000
vt 0.750000 0.312500
vt 0.625000 0.875000
vt 0.562500 0.687500
vt 0.625000 0.750000
vt 0.812500 0.312500
vt 0.750000 0.250000
vt 0.687500 0.312500
vt 0.250000 0.375000
vt 0.187500 0.375000
vt 0.812500 0.375000
vt 0.562500 0.375000
vt 0.562500 0.312500
vt 0.500000 0.375000
vt 0.500000 0.312500
vt 0.437500 0.375000
vt 0.437500 0.312500
vt 0.125000 0.312500
vt 0.000000 0.000000
vt 0.375000 0.250000
vt 0.437500 0.250000
vt 0.812500 0.250000
vt 0.625000 0.312500
vt 0.625000 0.250000
vt 0.562500 0.250000
vt 0.250000 0.250000
vt 0.375000 0.312500
vt 0.875000 0.250000
vt 0.687500 0.250000
vt 0.187500 0.312500
vt 0.125000 0.250000
vt 0.625000 0.375000
vt 0.125000 0.375000
vt 0.375000 0.000000
vt 0.625000 0.000000
vt 0.125000 0.500000
vt 0.375000 0.750000
vt 0.625000 1.000000
vt 0.375000 1.000000
vt 0.125000 0.750000
vt 0.625000 0.500000
vt 0.875000 0.500000
vt 0.875000 0.750000
s 0
usemtl None
f 12/1/1 29/2/1 28/3/1
f 5/4/1 21/5/1 22/6/1
f 36/7/1 31/8/1 27/2/1
f 16/9/1 3/10/1 6/11/1
f 46/12/1 60/13/1 63/14/1
f 71/15/1 69/16/1 62/17/1
f 76/18/1 74/19/1 81/20/1
f 18/21/1 10/11/1 12/1/1
f 33/8/1 32/22/1 28/3/1
f 28/3/1 18/21/1 12/1/1
f 12/1/1 11/23/1 23/6/1
f 23/6/1 35/24/1 29/2/1
f 29/2/1 33/8/1 28/3/1
f 29/2/1 12/1/1 23/6/1
f 8/23/1 5/4/1 22/6/1
f 34/24/1 36/7/1 27/2/1
f 17/21/1 30/22/1 16/9/1
f 8/23/1 9/1/1 6/11/1
f 17/21/1 26/3/1 30/22/1
f 3/10/1 8/23/1 6/11/1
f 6/11/1 17/21/1 16/9/1
f 56/25/1 55/26/1 53/27/1
f 53/27/1 52/28/1 42/29/1
f 45/30/1 44/31/1 46/12/1
f 53/27/1 42/29/1 45/30/1
f 54/32/1 56/25/1 53/27/1
f 68/16/1 72/33/1 54/32/1
f 63/14/1 65/34/1 61/17/1
f 68/16/1 70/15/1 72/33/1
f 63/14/1 64/35/1 65/34/1
f 45/30/1 68/16/1 54/32/1
f 54/32/1 53/27/1 45/30/1
f 46/12/1 43/36/1 60/13/1
f 61/17/1 45/30/1 46/12/1
f 46/12/1 63/14/1 61/17/1
f 61/17/1 68/16/1 45/30/1
f 66/34/1 71/15/1 62/17/1
f 81/20/1 84/37/1 76/18/1
f 74/19/1 80/38/1 81/20/1
f 81/20/1 82/39/1 84/37/1
f 25/53/6 15/53/6 95/53/6 91/53/6
f 68/16/6 61/17/6 119/17/6 118/16/6
f 55/26/1 56/25/1 109/25/1 111/26/1
f 75/53/6 73/53/6 127/53/6 129/53/6
f 48/53/6 47/53/6 113/53/6 114/53/6
f 67/53/6 49/53/6 105/53/6 106/53/6
f 29/2/1 35/24/1 102/24/1 101/2/1
f 16/9/1 30/22/1 94/22/1 96/9/1
f 70/15/6 68/16/6 121/16/6 125/15/6
f 69/16/1 71/15/1 124/15/1 123/16/1
f 52/28/1 53/27/1 116/27/1 115/28/1
f 74/19/5 76/18/5 135/18/5 137/19/5
f 22/6/1 21/5/1 89/5/1 86/6/1
f 54/32/1 72/33/1 107/33/1 112/32/1
f 20/53/6 24/53/6 87/53/6 85/53/6
f 19/53/6 20/53/6 85/53/6 90/53/6
f 31/8/1 36/7/1 93/7/1 92/8/1
f 32/22/1 33/8/1 98/8/1 97/22/1
f 34/24/6 27/2/6 104/2/6 103/24/6
f 51/53/6 50/53/6 110/53/6 108/53/6
f 62/17/1 69/16/1 120/16/1 117/17/1
f 68/16/6 118/16/6 122/16/6 121/16/6
f 133/16/1 132/16/1 131/16/1 134/16/1
f 120/16/3 69/16/3 132/16/3 133/16/3
f 69/16/5 123/16/5 131/16/5 132/16/5
f 137/19/1 135/18/1 136/18/1 138/19/1
f 139/68/6 140/69/6 142/58/6 141/54/6
f 145/22/2 141/70/2 152/70/2 153/22/2
f 144/39/4 143/71/4 149/71/4 150/39/4
f 143/71/4 144/39/4 140/72/4 139/73/4
f 141/70/2 145/22/2 143/71/2 139/74/2
f 146/75/5 142/76/5 140/77/5 144/39/5
f 148/22/1 147/75/1 150/39/1 149/71/1
f 143/71/2 145/22/2 148/22/2 149/71/2
f 146/75/5 144/39/5 150/39/5 147/75/5
f 146/75/5 147/75/5 155/75/5 154/75/5
f 152/54/3 151/58/3 154/75/3 153/22/3
f 153/22/3 154/75/3 155/75/3 156/22/3
f 148/22/2 145/22/2 153/22/2 156/22/2
f 142/76/5 146/75/5 154/75/5 151/76/5
f 141/54/6 142/58/6 151/58/6 152/54/6
f 147/75/1 148/22/1 156/22/1 155/75/1
f 157/68/4 158/69/4 160/58/4 159/54/4
f 159/54/5 160/58/5 164/75/5 163/22/5
f 163/22/3 164/75/3 162/39/3 161/71/3
f 161/71/2 162/39/2 158/72/2 157/73/2
f 159/70/6 163/22/6 161/71/6 157/74/6
f 164/75/1 160/76/1 158/77/1 162/39/1
f 165/68/4 166/69/4 168/58/4 167/54/4
f 167/54/5 168/58/5 172/75/5 171/22/5
f 171/22/3 172/75/3 170/39/3 169/71/3
f 169/71/2 170/39/2 166/72/2 165/73/2
f 167/70/6 171/22/6 169/71/6 165/74/6
f 172/75/1 168/76/1 166/77/1 170/39/1
f 173/68/4 174/69/4 176/58/4 175/54/4
f 175/54/5 176/58/5 180/75/5 179/22/5
f 179/22/3 180/75/3 178/39/3 177/71/3
f 177/71/2 178/39/2 174/72/2 173/73/2
f 175/70/6 179/22/6 177/71/6 173/74/6
f 180/75/1 176/76/1 174/77/1 178/39/1
usemtl None_NONE
f 5/40/2 8/36/2 7/41/2
f 11/12/2 12/31/2 9/42/2
f 9/11/3 12/43/3 10/44/3
f 26/42/4 17/40/4 18/45/4
f 10/31/2 18/46/2 17/47/2
f 28/46/2 32/48/2 30/49/2
f 33/48/5 29/50/5 27/51/5
f 35/50/5 34/51/5 103/51/5 102/50/5
f 22/51/3 23/50/3 11/43/3
f 3/52/3 2/10/3 8/11/3
f 66/14/3 62/12/3 61/36/3
f 65/51/5 59/54/5 70/49/5
f 126/48/2 120/48/2 133/48/2 134/48/2
f 42/47/2 52/51/2 47/55/2
f 57/56/3 60/40/3 43/42/3
f 43/42/2 46/57/2 41/58/2
f 40/58/3 45/57/3 42/47/3
f 56/57/5 54/47/5 49/59/5
f 4/60/3 19/55/3 21/51/3
f 63/61/5 60/1/5 57/23/5
f 59/62/3 64/13/3 63/40/3
f 82/36/5 79/41/5 83/62/5
f 84/51/4 83/55/4 75/63/4
f 81/36/5 80/42/5 77/63/5
f 79/59/3 82/47/3 81/49/3
f 77/6/3 80/49/3 74/1/3
f 13/58/2 16/49/2 14/59/2
f 34/51/1 22/11/1 86/11/1 88/51/1
f 39/58/2 44/57/2 45/47/2
f 46/42/3 44/57/3 39/58/3
f 53/51/2 55/61/2 50/54/2
f 22/11/5 34/51/5 35/50/5
f 4/56/2 5/40/2 7/41/2
f 8/36/2 11/12/2 9/42/2
f 6/64/3 9/11/3 10/44/3
f 28/31/4 26/42/4 18/45/4
f 6/42/2 10/31/2 17/47/2
f 26/47/2 28/46/2 30/49/2
f 31/49/5 33/48/5 27/51/5
f 8/11/3 22/51/3 11/43/3
f 2/10/3 3/52/3 1/65/3
f 2/10/3 7/60/3 8/11/3
f 33/48/5 31/49/5 100/49/5 98/48/5
f 36/49/5 25/6/5 91/6/5 93/49/5
f 30/49/2 32/48/2 97/48/2 99/49/2
f 15/6/2 16/49/2 96/49/2 95/6/2
f 65/13/3 66/14/3 61/36/3
f 71/48/5 66/50/5 65/51/5
f 67/59/5 72/47/5 70/49/5
f 70/49/5 71/48/5 65/51/5
f 65/51/5 64/61/5 59/54/5
f 59/54/5 67/59/5 70/49/5
f 37/59/2 42/47/2 47/55/2
f 38/63/3 57/56/3 43/42/3
f 38/63/2 43/42/2 41/58/2
f 37/59/3 40/58/3 42/47/3
f 51/58/5 56/57/5 49/59/5
f 5/11/3 4/60/3 21/51/3
f 58/54/5 63/61/5 57/23/5
f 58/56/3 59/62/3 63/40/3
f 84/13/5 82/36/5 83/62/5
f 76/42/4 84/51/4 75/63/4
f 78/41/5 81/36/5 77/63/5
f 78/6/3 79/59/3 81/49/3
f 73/23/3 77/6/3 74/1/3
f 3/36/2 13/58/2 1/41/2
f 16/49/2 15/6/2 14/59/2
f 13/58/2 3/36/2 16/49/2
f 24/55/5 25/6/5 36/49/5
f 21/51/3 19/55/3 90/55/3 89/51/3
f 24/55/4 34/51/4 88/51/4 87/55/4
f 24/55/5 36/49/5 34/51/5
f 40/59/2 39/58/2 45/47/2
f 49/59/2 54/47/2 112/47/2 105/59/2
f 41/63/3 46/42/3 39/58/3
f 48/55/2 53/51/2 50/54/2
f 23/43/5 22/11/5 35/50/5
f 86/11/5 90/10/5 85/23/5
f 85/23/5 88/51/5 86/11/5
f 88/51/5 85/23/5 87/55/5
f 86/11/5 89/64/5 90/10/5
f 91/59/4 94/42/4 92/57/4
f 92/57/4 93/47/4 91/59/4
f 95/62/4 96/13/4 94/42/4
f 94/42/4 91/59/4 95/62/4
f 30/42/1 31/57/1 92/57/1 94/42/1
f 97/31/4 98/66/4 100/57/4
f 99/42/4 97/31/4 100/57/4
f 31/57/6 30/42/6 99/42/6 100/57/6
f 102/46/4 103/47/4 104/57/4
f 101/66/4 102/46/4 104/57/4
f 27/51/2 29/50/2 101/50/2 104/51/2
f 109/1/4 108/23/4 110/54/4
f 107/52/4 106/65/4 105/23/4
f 116/61/4 114/54/4 113/55/4
f 111/61/4 109/1/4 110/54/4
f 112/1/4 107/52/4 105/23/4
f 115/51/4 116/61/4 113/55/4
f 56/57/5 51/58/5 108/58/5 109/57/5
f 53/51/5 48/55/5 114/55/5 116/51/5
f 72/47/5 67/59/5 106/59/5 107/47/5
f 47/55/2 52/51/2 115/51/2 113/55/2
f 50/54/2 55/61/2 111/61/2 110/54/2
f 117/46/2 120/48/2 118/49/2
f 119/47/2 117/46/2 118/49/2
f 61/36/3 62/12/3 117/12/3 119/36/3
f 125/52/4 121/11/4 123/43/4
f 124/67/4 125/52/4 123/43/4
f 123/43/4 121/11/4 122/11/4 126/43/4
f 118/49/2 120/48/2 126/48/2 122/49/2
f 71/48/5 70/49/5 125/49/5 124/48/5
f 130/52/2 129/65/2 127/23/2
f 128/1/2 130/52/2 127/23/2
f 73/23/3 74/1/3 128/1/3 127/23/3
f 76/42/4 75/63/4 129/63/4 130/42/4
f 123/43/4 126/43/4 134/43/4 131/43/4
f 128/1/3 74/1/3 137/1/3 138/1/3
f 130/52/2 128/1/2 138/1/2 136/52/2
f 76/42/4 130/42/4 136/42/4 135/42/4
